# xmcd
#
# Track frame offsets:
#	150
#	13442
#	34691
#	49477
#	67554
#	83956
#	100361
#	116137
#	130119
#	145365
#	164069
#	180119
#	198403
#	210046
#	226998
#	257000
#
# Disc length: 3432 seconds
#
# Revision: 1
# Processed by: cddbd v1.5.2PL0 Copyright (c) Steve Scherf et al.
# Submitted via: audiograbber 1.83.01
#
DISCID=db0d6610
DTITLE=Various Artist - ASK21-1
DYEAR=1900
DGENRE=KARAOKE
TTITLE0=TOBY KEITH - A LITTLE LESS TALK
TTITLE1=KENNY CHESNEY - A LOT OF THINGS DIFFERENT
TTITLE2=TIM MCGRAW - ALL WE EVER FIND
TTITLE3=KENNY CHESNEY - BIG STAR
TTITLE4=TOBY KEITH - COUNTRY COMES TO TOWN
TTITLE5=TOBY KEITH - COURTESY OF THE RED WHITE and BLUE
TTITLE6=BROOKS and DUNN - EVERY RIVER
TTITLE7=TOBY KEITH - HE AIN'T WORTH MISSING
TTITLE8=STEVE AZAR - I DON'T HAVE TO BE ME TILL MONDAY
TTITLE9=KENNY CHESNEY - I LOST IT
TTITLE10=DARRYL WORLEY - I MISS MY FRIEND
TTITLE11=BRAD PAISLEY - I WISH YOU'D STAY
TTITLE12=CRAIG MORGAN - LOOK AT US
TTITLE13=GARY ALLEN - MAN TO MAN
TTITLE14=MONTGOMERY GENTRY - MY TOWN
TTITLE15=DATA - Data Track
EXTD=
EXTT0=
EXTT1=
EXTT2=
EXTT3=
EXTT4=
EXTT5=
EXTT6=
EXTT7=
EXTT8=
EXTT9=
EXTT10=
EXTT11=
EXTT12=
EXTT13=
EXTT14=
EXTT15=
PLAYORDER=
